<svg version="1.1" xmlns="http://www.w3.org/2000/svg" xmlns:xlink="http://www.w3.org/1999/xlink" width="176.01197" height="219.40833" viewBox="0,0,176.01197,219.40833"><g transform="translate(-155.74402,-66.58043)"><g stroke-miterlimit="10"><path d="M323.45614,124.83975l-1.80441,4.63752" fill="none" stroke="#676767" stroke-width="15" stroke-linecap="round"/><path d="M321.29455,130.39525l-9.90329,25.45243" fill="none" stroke="#676767" stroke-width="15" stroke-linecap="round"/><path d="M310.72059,157.57136l-19.32515,49.6675" fill="none" stroke="#676767" stroke-width="15" stroke-linecap="round"/><path d="M224.97286,85.8879l-32.27223,82.94276" fill="none" stroke="#676767" stroke-width="15" stroke-linecap="round"/><path d="M155.74402,241.75042l38.07398,-97.85383l113.69683,44.23834l-38.07399,97.85383z" fill="#ecdf41" stroke="none" stroke-width="0" stroke-linecap="butt"/><path d="M324.25598,122.81256c-0.14594,-0.33337 -0.40419,-0.91447 -0.76858,-1.70141" fill="none" stroke="#676767" stroke-width="15" stroke-linecap="round"/><path d="M323.27653,120.65829c-0.99082,-2.11639 -2.61615,-5.43031 -4.78401,-9.31949" fill="none" stroke="#676767" stroke-width="15" stroke-linecap="round"/><path d="M317.54336,109.66101c-0.95182,-1.65778 -1.99284,-3.39768 -3.11673,-5.17669" fill="none" stroke="#676767" stroke-width="15" stroke-linecap="round"/><path d="M314.14799,104.04515c-0.04348,-0.06824 -0.08708,-0.13652 -0.1308,-0.20486" fill="none" stroke="#676767" stroke-width="15" stroke-linecap="round"/><path d="M313.55169,103.11784c-2.2283,-3.43346 -4.75344,-6.96977 -7.531,-10.30841" fill="none" stroke="#676767" stroke-width="15" stroke-linecap="round"/><path d="M305.66771,92.38783c-0.6311,-0.74895 -1.27495,-1.48721 -1.93103,-2.21133" fill="none" stroke="#676767" stroke-width="15" stroke-linecap="round"/><path d="M301.56815,87.88348c-0.2368,-0.23945 -0.47501,-0.47674 -0.71461,-0.71174c-0.75869,-0.74413 -1.56792,-1.45195 -2.41526,-2.12311" fill="none" stroke="#676767" stroke-width="15" stroke-linecap="round"/><path d="M298.04436,84.74133c-0.17608,-0.13531 -10.49085,-5.48445 -10.66988,-5.61666" fill="none" stroke="#676767" stroke-width="15" stroke-linecap="round"/><path d="M286.36176,78.4433c-0.54146,-0.20007 -1.07788,-0.38766 -1.60697,-0.5627" fill="none" stroke="#676767" stroke-width="15" stroke-linecap="round"/><path d="M284.25921,77.71962c-3.06972,-0.97883 -8.63131,-1.87786 -10.67941,-1.9827" fill="none" stroke="#676767" stroke-width="15" stroke-linecap="round"/><path d="M278.06543,76.04837c-0.18077,-0.0716 4.13989,1.79384 3.93488,1.72141c-4.79441,-1.69398 -15.18419,-4.12266 -20.36865,-3.71269c-17.58424,1.39052 -35.08524,10.46189 -35.08524,10.46189" fill="none" stroke="#676767" stroke-width="15" stroke-linecap="round"/><path d="M244.80085,181.70362l-27.39843,72.58879" fill="none" stroke="#676767" stroke-width="15" stroke-linecap="round"/><path d="M241.00173,244.94239c-3.66524,9.42003 -14.5254,13.98699 -24.25684,10.20058c-9.73143,-3.78641 -14.64906,-14.49235 -10.98381,-23.91238c3.66525,-9.42003 14.5254,-13.98699 24.25684,-10.20058c9.73144,3.78641 14.64906,14.49235 10.98381,23.91237z" fill="#676767" stroke="#676767" stroke-width="15" stroke-linecap="butt"/></g></g></svg>